<svg xmlns="http://www.w3.org/2000/svg" xmlns:xlink="http://www.w3.org/1999/xlink" width="500" zoomAndPan="magnify" viewBox="0 0 375 374.999991" height="500" preserveAspectRatio="xMidYMid meet" version="1.0"><defs><clipPath id="1f87a4b373"><path d="M 185 175.921875 L 362.550781 175.921875 L 362.550781 199.324219 L 185 199.324219 Z M 185 175.921875 " clip-rule="nonzero"/></clipPath><clipPath id="781f00a73b"><path d="M 261.832031 98.800781 L 285.234375 98.800781 L 285.234375 276.382812 L 261.832031 276.382812 Z M 261.832031 98.800781 " clip-rule="nonzero"/></clipPath><clipPath id="af07dd6c30"><path d="M 235.921875 125.566406 L 311.636719 125.566406 L 311.636719 249.464844 L 235.921875 249.464844 Z M 235.921875 125.566406 " clip-rule="nonzero"/></clipPath><clipPath id="dfd2888678"><path d="M 211.703125 149.753906 L 335.597656 149.753906 L 335.597656 225.46875 L 211.703125 225.46875 Z M 211.703125 149.753906 " clip-rule="nonzero"/></clipPath><clipPath id="a9973d4836"><path d="M 235.402344 175.53125 L 311.804688 175.53125 L 311.804688 199.621094 L 235.402344 199.621094 Z M 235.402344 175.53125 " clip-rule="nonzero"/></clipPath><clipPath id="091d7465b8"><path d="M 261.695312 149.359375 L 285.785156 149.359375 L 285.785156 225.761719 L 261.695312 225.761719 Z M 261.695312 149.359375 " clip-rule="nonzero"/></clipPath><clipPath id="ec2fb24d72"><path d="M 63 158 L 182 158 L 182 218 L 63 218 Z M 63 158 " clip-rule="nonzero"/></clipPath><clipPath id="c54b177345"><path d="M 181.601562 202.371094 L 175.757812 217.1875 L 63.316406 172.835938 L 69.160156 158.019531 Z M 181.601562 202.371094 " clip-rule="nonzero"/></clipPath><clipPath id="de3f0f3d6e"><path d="M 92 128 L 152 128 L 152 247 L 92 247 Z M 92 128 " clip-rule="nonzero"/></clipPath><clipPath id="8143caa505"><path d="M 107.558594 246.667969 L 92.738281 240.824219 L 137.089844 128.382812 L 151.90625 134.226562 Z M 107.558594 246.667969 " clip-rule="nonzero"/></clipPath><clipPath id="1c0d81e68f"><path d="M 83 138 L 162 138 L 162 237 L 83 237 Z M 83 138 " clip-rule="nonzero"/></clipPath><clipPath id="774d2a4fce"><path d="M 114 138.859375 L 161.941406 157.769531 L 131 236.21875 L 83.058594 217.308594 Z M 114 138.859375 " clip-rule="nonzero"/></clipPath><clipPath id="dc53975a49"><path d="M 73 148 L 172 148 L 172 228 L 73 228 Z M 73 148 " clip-rule="nonzero"/></clipPath><clipPath id="f2710c2ff6"><path d="M 171.070312 179.066406 L 152.164062 227.007812 L 73.714844 196.066406 L 92.625 148.125 Z M 171.070312 179.066406 " clip-rule="nonzero"/></clipPath><clipPath id="29327d5696"><path d="M 14 177 L 58 177 L 58 198 L 14 198 Z M 14 177 " clip-rule="nonzero"/></clipPath><clipPath id="1ddf3ce9f7"><path d="M 55.9375 177.855469 L 57.933594 190.90625 L 16.539062 197.238281 L 14.542969 184.183594 Z M 55.9375 177.855469 " clip-rule="nonzero"/></clipPath><clipPath id="c119507696"><path d="M 26 165 L 46 165 L 46 210 L 26 210 Z M 26 165 " clip-rule="nonzero"/></clipPath><clipPath id="95f9a22589"><path d="M 26.617188 167.824219 L 39.671875 165.828125 L 46 207.226562 L 32.949219 209.222656 Z M 26.617188 167.824219 " clip-rule="nonzero"/></clipPath></defs><g clip-path="url(#1f87a4b373)"><path fill="#a24e16" d="M 362.515625 175.921875 L 362.515625 199.324219 L 185.003906 199.324219 L 185.003906 175.921875 L 362.515625 175.921875 " fill-opacity="1" fill-rule="nonzero"/></g><g clip-path="url(#781f00a73b)"><path fill="#a24e16" d="M 285.234375 276.347656 L 261.832031 276.347656 L 261.832031 98.835938 L 285.234375 98.835938 L 285.234375 276.347656 " fill-opacity="1" fill-rule="nonzero"/></g><g clip-path="url(#af07dd6c30)"><path fill="#a24e16" d="M 235.921875 125.570312 L 311.636719 125.570312 L 311.636719 249.460938 L 235.921875 249.460938 L 235.921875 125.570312 " fill-opacity="1" fill-rule="nonzero"/></g><g clip-path="url(#dfd2888678)"><path fill="#a24e16" d="M 335.59375 149.753906 L 335.59375 225.46875 L 211.703125 225.46875 L 211.703125 149.753906 L 335.59375 149.753906 " fill-opacity="1" fill-rule="nonzero"/></g><g clip-path="url(#a9973d4836)"><path fill="#e1dcc9" d="M 311.792969 175.53125 L 311.792969 199.621094 L 235.414062 199.621094 L 235.414062 175.53125 L 311.792969 175.53125 " fill-opacity="1" fill-rule="nonzero"/></g><g clip-path="url(#091d7465b8)"><path fill="#e1dcc9" d="M 261.695312 149.371094 L 285.785156 149.371094 L 285.785156 225.746094 L 261.695312 225.746094 L 261.695312 149.371094 " fill-opacity="1" fill-rule="nonzero"/></g><g clip-path="url(#ec2fb24d72)"><g clip-path="url(#c54b177345)"><path fill="#a24e16" d="M 181.578125 202.359375 L 175.734375 217.179688 L 63.339844 172.84375 L 69.183594 158.027344 L 181.578125 202.359375 " fill-opacity="1" fill-rule="nonzero"/></g></g><g clip-path="url(#de3f0f3d6e)"><g clip-path="url(#8143caa505)"><path fill="#a24e16" d="M 107.566406 246.644531 L 92.75 240.800781 L 137.082031 128.40625 L 151.898438 134.25 L 107.566406 246.644531 " fill-opacity="1" fill-rule="nonzero"/></g></g><g clip-path="url(#1c0d81e68f)"><g clip-path="url(#774d2a4fce)"><path fill="#a24e16" d="M 114 138.863281 L 161.941406 157.769531 L 131 236.214844 L 83.058594 217.304688 L 114 138.863281 " fill-opacity="1" fill-rule="nonzero"/></g></g><g clip-path="url(#dc53975a49)"><g clip-path="url(#f2710c2ff6)"><path fill="#a24e16" d="M 171.070312 179.066406 L 152.160156 227.007812 L 73.714844 196.066406 L 92.625 148.125 L 171.070312 179.066406 " fill-opacity="1" fill-rule="nonzero"/></g></g><g clip-path="url(#29327d5696)"><g clip-path="url(#1ddf3ce9f7)"><path fill="#e1dcc9" d="M 55.929688 177.855469 L 57.925781 190.90625 L 16.542969 197.238281 L 14.546875 184.183594 L 55.929688 177.855469 " fill-opacity="1" fill-rule="nonzero"/></g></g><g clip-path="url(#c119507696)"><g clip-path="url(#95f9a22589)"><path fill="#e1dcc9" d="M 26.617188 167.832031 L 39.671875 165.835938 L 46 207.21875 L 32.949219 209.214844 L 26.617188 167.832031 " fill-opacity="1" fill-rule="nonzero"/></g></g></svg>